<svg width="350" height="160" viewBox="0 0 350 160" fill="none" xmlns="http://www.w3.org/2000/svg">
<rect width="350" height="160" fill="#19191F"/>
<path d="M307 43H287V86C287 91.5228 282.523 96 277 96C271.477 96 267 91.5229 267 86V43H247V86C247 102.569 260.431 116 277 116C293.569 116 307 102.569 307 86V43Z" fill="#FFC700"/>
<path d="M227.5 63L213 116H182L167.5 63H128V43H183L197.5 96L212 43H267V63H227.5Z" fill="#FFC700"/>
<path d="M108.5 63L94 116H63L43 43H64L78.5 96L93 43H148V63H108.5Z" fill="#FFC700"/>
<path d="M148 83H128V116H148V83Z" fill="#FFC700"/>
</svg>
